# xmcd
#
# Track frame offsets: 
#        182
#        24095
#        50937
#        75230
#        96567
#        120145
#
# Disc length: 1670 seconds
#
# Revision: 10
# Processed by: cddbd v1.5.1PL0 Copyright (c) Steve Scherf et al.
# Submitted via: ExactAudioCopy v0.95a5
#
DISCID=3c068406
DTITLE=Various Artist - Five Live
DYEAR=1992
DGENRE=Rock
TTITLE0=Queen and George Michael - Somebody To Love
TTITLE1=George Michael - Killer
TTITLE2=George Michael - Papa Was A Rollin' Stone
TTITLE3=Queen and George Michael With Lisa Stansfield - These Are The Da
TTITLE3=ys Of Our Lives
TTITLE4=George Michael - Calling You
TTITLE5=Queen - Dear Friends
EXTD=
EXTT0=
EXTT1=
EXTT2=
EXTT3=with Lisa Stansfield
EXTT4=
EXTT5=
PLAYORDER=
